<svg xmlns="http://www.w3.org/2000/svg" width="235.865" height="48.109" viewBox="0 0 235.865 48.109">
  <g id="logo" transform="translate(-39.035 -208.891)">
    <g id="Group_124" data-name="Group 124">
      <path id="Path_67" data-name="Path 67" d="M82.7,242.8a10.718,10.718,0,0,1-3.2-1.2l1.7-3.9a8.856,8.856,0,0,0,2.6,1.1,10.323,10.323,0,0,0,3,.4,4.918,4.918,0,0,0,2-.3.938.938,0,0,0,.6-.8c0-.3-.2-.6-.7-.8a8.686,8.686,0,0,0-2.2-.4q-1.95-.3-3.3-.6a4.929,4.929,0,0,1-2.4-1.4,3.945,3.945,0,0,1-1-2.9,4.678,4.678,0,0,1,.9-2.8,6.231,6.231,0,0,1,2.7-1.9,11.078,11.078,0,0,1,4.3-.7,13.934,13.934,0,0,1,3.5.4,9.822,9.822,0,0,1,2.9,1l-1.7,3.9a9.392,9.392,0,0,0-4.7-1.2,4.918,4.918,0,0,0-2,.3.938.938,0,0,0-.6.8c0,.4.2.6.7.8a14.008,14.008,0,0,0,2.3.5,18.653,18.653,0,0,1,3.3.7,6.206,6.206,0,0,1,2.3,1.4,4.6,4.6,0,0,1,.1,5.6,6.231,6.231,0,0,1-2.7,1.9,11.612,11.612,0,0,1-4.4.7A27.606,27.606,0,0,1,82.7,242.8Z"/>
      <path id="Path_68" data-name="Path 68" d="M97.6,224.1a3.029,3.029,0,0,1-1-2.2,2.7,2.7,0,0,1,1-2.2,3.486,3.486,0,0,1,2.5-.9,3.936,3.936,0,0,1,2.5.8,2.814,2.814,0,0,1,1,2.1,2.7,2.7,0,0,1-1,2.2,3.486,3.486,0,0,1-2.5.9A3.393,3.393,0,0,1,97.6,224.1Zm-.4,2.6h5.7V243H97.2Z"/>
      <path id="Path_69" data-name="Path 69" d="M117.8,242.3a7.509,7.509,0,0,1-1.8.7,7.845,7.845,0,0,1-2.2.2,6.738,6.738,0,0,1-4.9-1.6,6.123,6.123,0,0,1-1.7-4.7v-5.5h-2.4v-4.3h2.4v-4.2h5.7v4.2h3.7v4.3H113v5.4a2.168,2.168,0,0,0,.5,1.4,1.656,1.656,0,0,0,1.2.5,3.1,3.1,0,0,0,1.7-.5Z"/>
      <path id="Path_70" data-name="Path 70" d="M136.1,236.3H124.3a3.022,3.022,0,0,0,1.4,1.9,4.406,4.406,0,0,0,2.6.7,5.618,5.618,0,0,0,2-.3,5.454,5.454,0,0,0,1.7-1.1l3,3.1c-1.6,1.8-3.9,2.6-6.9,2.6a11.166,11.166,0,0,1-5-1.1,7.416,7.416,0,0,1-3.3-3,8.063,8.063,0,0,1-1.2-4.4,7.963,7.963,0,0,1,1.2-4.3,7.721,7.721,0,0,1,3.2-3,10.071,10.071,0,0,1,4.6-1.1,9.2,9.2,0,0,1,4.4,1,7.242,7.242,0,0,1,3.1,2.9,8.41,8.41,0,0,1,1.2,4.5A4.232,4.232,0,0,0,136.1,236.3Zm-10.8-5a3.09,3.09,0,0,0-1.1,2h6.7a3.285,3.285,0,0,0-3.3-2.8A3.374,3.374,0,0,0,125.3,231.3Z"/>
      <path id="Path_71" data-name="Path 71" d="M153.1,227.5a8.062,8.062,0,0,1,2.9,2.9,8.969,8.969,0,0,1,1.1,4.4,8.694,8.694,0,0,1-1.1,4.4,7.353,7.353,0,0,1-2.9,2.9,7.924,7.924,0,0,1-4,1,6.109,6.109,0,0,1-4.5-1.7v7.3h-5.7V226.6h5.4v1.6a5.908,5.908,0,0,1,4.8-1.9A10.938,10.938,0,0,1,153.1,227.5Zm-2.8,10.2a4.139,4.139,0,0,0,1-2.8,3.705,3.705,0,0,0-1-2.8,3.174,3.174,0,0,0-2.5-1,3.317,3.317,0,0,0-2.5,1,4.139,4.139,0,0,0-1,2.8,3.705,3.705,0,0,0,1,2.8,3.625,3.625,0,0,0,5,0Z"/>
      <path id="Path_72" data-name="Path 72" d="M163.1,242.2a7.981,7.981,0,0,1-3.3-3,8.063,8.063,0,0,1-1.2-4.4,8.061,8.061,0,0,1,4.5-7.3,10.591,10.591,0,0,1,9.4,0,8.061,8.061,0,0,1,4.5,7.3,8.308,8.308,0,0,1-1.2,4.4,7.981,7.981,0,0,1-3.3,3,10.591,10.591,0,0,1-9.4,0Zm7.2-4.5a4.223,4.223,0,0,0,1-2.9,3.705,3.705,0,0,0-1-2.8,3.174,3.174,0,0,0-2.5-1,3.317,3.317,0,0,0-2.5,1,4.139,4.139,0,0,0-1,2.8,3.945,3.945,0,0,0,1,2.9,3.174,3.174,0,0,0,2.5,1A3.317,3.317,0,0,0,170.3,237.7Z"/>
      <path id="Path_73" data-name="Path 73" d="M206.1,226.7,200.3,243h-5.5l-3.1-8.8-3.2,8.8H183l-5.8-16.3h5.4l3.3,9.8,3.4-9.8h4.9l3.4,9.9,3.4-9.9Z"/>
      <path id="Path_74" data-name="Path 74" d="M224,236.3H212.2a3.022,3.022,0,0,0,1.4,1.9,4.406,4.406,0,0,0,2.6.7,5.618,5.618,0,0,0,2-.3,5.454,5.454,0,0,0,1.7-1.1l3,3.1c-1.6,1.8-3.9,2.6-6.9,2.6a11.166,11.166,0,0,1-5-1.1,7.416,7.416,0,0,1-3.3-3,8.063,8.063,0,0,1-1.2-4.4,7.963,7.963,0,0,1,1.2-4.3,7.721,7.721,0,0,1,3.2-3,10.071,10.071,0,0,1,4.6-1.1,9.2,9.2,0,0,1,4.4,1,7.242,7.242,0,0,1,3.1,2.9,8.41,8.41,0,0,1,1.2,4.5C224,234.9,224,235.4,224,236.3Zm-10.8-5a3.09,3.09,0,0,0-1.1,2h6.7a3.285,3.285,0,0,0-3.3-2.8A3.566,3.566,0,0,0,213.2,231.3Z"/>
      <path id="Path_75" data-name="Path 75" d="M234.4,227a7.943,7.943,0,0,1,3.2-.6v5.1a6.637,6.637,0,0,0-1.3-.1,3.945,3.945,0,0,0-2.9,1,4.04,4.04,0,0,0-1,3v7.5h-5.7V226.6h5.4v2A7.853,7.853,0,0,1,234.4,227Z"/>
      <path id="Path_76" data-name="Path 76" d="M239.6,242.3a3.38,3.38,0,0,1,0-4.8,3.406,3.406,0,0,1,2.4-.9,3.656,3.656,0,0,1,2.5.9,3.312,3.312,0,0,1,1,2.4,2.965,2.965,0,0,1-1,2.4,3.69,3.69,0,0,1-2.4,1A3.317,3.317,0,0,1,239.6,242.3Z"/>
      <path id="Path_77" data-name="Path 77" d="M248.5,224.1a3.029,3.029,0,0,1-1-2.2,2.7,2.7,0,0,1,1-2.2,3.486,3.486,0,0,1,2.5-.9,3.937,3.937,0,0,1,2.5.8,2.814,2.814,0,0,1,1,2.1,2.7,2.7,0,0,1-1,2.2,3.486,3.486,0,0,1-2.5.9A3.012,3.012,0,0,1,248.5,224.1Zm-.3,2.6h5.7V243h-5.7Z"/>
      <path id="Path_78" data-name="Path 78" d="M261,242.2a7.981,7.981,0,0,1-3.3-3,8.063,8.063,0,0,1-1.2-4.4,8.061,8.061,0,0,1,4.5-7.3,10.591,10.591,0,0,1,9.4,0,8.061,8.061,0,0,1,4.5,7.3,8.308,8.308,0,0,1-1.2,4.4,7.981,7.981,0,0,1-3.3,3,10.591,10.591,0,0,1-9.4,0Zm7.2-4.5a4.223,4.223,0,0,0,1-2.9,3.7,3.7,0,0,0-1-2.8,3.174,3.174,0,0,0-2.5-1,3.317,3.317,0,0,0-2.5,1,4.139,4.139,0,0,0-1,2.8,3.945,3.945,0,0,0,1,2.9,3.174,3.174,0,0,0,2.5,1A3.317,3.317,0,0,0,268.2,237.7Z"/>
    </g>
    <g id="lightning" transform="translate(-57.891 209)">
      <path id="Path_1" d="M108.1,47.7l18.5-31.9a1.012,1.012,0,0,0-.4-1.4.661.661,0,0,0-.6-.1L113.3,16,116.2.6c.1-.3-.1-.5-.4-.6-.2,0-.4,0-.5.2l-18.2,24a1.075,1.075,0,0,0,.2,1.4.952.952,0,0,0,.7.2l13.6-1.4-4.5,23c-.1.3.1.5.4.6A.6.6,0,0,0,108.1,47.7Z" fill="#ffdc60"/>
      <path id="Path_2" d="M102.9,22.5a.43.43,0,0,1-.4-.4.367.367,0,0,1,.1-.3L116.2,0a.494.494,0,0,0-.7.1h0l-18.2,24a1.075,1.075,0,0,0,.2,1.4.952.952,0,0,0,.7.2l13.6-1.4-4.5,23c-.1.3.1.5.4.6h0l7.6-24.1a1.648,1.648,0,0,0-1.1-2.1,1.268,1.268,0,0,0-.6-.1Z" fill="#ffc840"/>
    </g>
  </g>
</svg>
